<svg width="145" height="96" viewBox="0 0 145 96" fill="none" xmlns="http://www.w3.org/2000/svg">
<path d="M142.061 85.4392C139.949 85.5032 138.253 85.1512 136.973 84.3832C135.757 83.6792 134.605 82.3672 133.517 80.4472C133.133 79.8072 132.621 78.6552 131.981 76.9912C131.405 75.3272 131.021 74.0152 130.829 73.0552C130.829 72.6072 130.765 72.1912 130.637 71.8072C130.445 71.9352 130.285 72.1272 130.157 72.3832C130.093 72.5752 129.965 72.7352 129.773 72.8632C129.645 72.9912 129.293 73.2472 128.717 73.6312C128.653 73.6952 128.493 73.7912 128.237 73.9192C128.045 74.0472 127.917 74.1752 127.853 74.3032C127.021 75.3272 125.965 75.8392 124.685 75.8392C123.789 75.8392 122.509 75.6472 120.845 75.2632L118.637 74.8792C117.101 74.4952 116.077 73.5992 115.565 72.1912C114.989 70.7192 114.701 68.7352 114.701 66.2392C114.765 63.9352 115.245 61.4072 116.141 58.6552C118.125 53.4072 119.693 49.9192 120.845 48.1912C122.317 46.1432 123.725 44.5752 125.069 43.4872C126.605 42.4632 128.141 41.9512 129.677 41.9512C130.509 41.9512 131.309 42.0792 132.077 42.3352C133.741 43.0392 134.829 43.4552 135.341 43.5832C135.661 42.6232 135.885 41.5352 136.013 40.3192C136.077 40.0632 136.109 39.7432 136.109 39.3592C136.173 38.9752 136.237 38.4632 136.301 37.8232C137.709 38.0792 138.701 38.3352 139.277 38.5912C140.365 38.9752 141.261 39.3592 141.965 39.7432C142.157 39.8072 142.413 39.9992 142.733 40.3192C143.117 40.5752 143.437 40.7352 143.693 40.7992C143.821 40.7352 143.917 40.8632 143.981 41.1832C144.045 41.5032 144.077 41.6952 144.077 41.7592C144.077 41.9512 144.045 42.3672 143.981 43.0072C143.917 43.5832 143.757 44.2552 143.501 45.0232C142.221 48.7992 140.973 53.5032 139.757 59.1352C138.605 64.7032 138.029 69.4072 138.029 73.2472C138.029 75.4872 138.253 77.1832 138.701 78.3352C138.893 79.4232 139.213 80.2872 139.661 80.9272C139.789 81.1832 140.013 81.6312 140.333 82.2712C140.653 82.9752 141.101 83.5192 141.677 83.9032C142.125 84.3512 142.477 84.5752 142.733 84.5752C142.925 84.7672 143.053 84.8632 143.117 84.8632C143.181 84.9272 143.181 84.9912 143.117 85.0552C143.117 85.1832 143.117 85.2792 143.117 85.3432L142.061 85.4392ZM121.709 72.7672C122.285 72.1912 122.573 71.9032 122.573 71.9032L123.341 71.0392C125.837 67.0072 127.821 63.4872 129.293 60.4792L130.253 58.2712L133.421 50.4952C134.317 48.3832 134.733 46.5912 134.669 45.1192C134.093 44.9272 133.709 44.7352 133.517 44.5432C133.261 44.2872 132.781 44.1592 132.077 44.1592C131.821 44.2232 131.565 44.3512 131.309 44.5432C131.053 44.7352 130.893 44.8632 130.829 44.9272C129.037 46.3352 127.757 47.4872 126.989 48.3832C126.797 48.6392 126.477 49.0232 126.029 49.5352C125.645 49.9832 125.485 50.4952 125.549 51.0712L125.453 51.1672C125.197 51.2312 125.005 51.3912 124.877 51.6472C124.813 51.8392 124.749 51.9992 124.685 52.1272C124.557 52.2552 124.429 52.4472 124.301 52.7032C124.237 52.8952 124.141 53.0232 124.013 53.0872C124.013 53.2152 123.949 53.3112 123.821 53.3752C123.757 53.4392 123.757 53.5032 123.821 53.5672C123.949 53.8872 123.725 54.7512 123.149 56.1592C122.637 57.5032 122.349 58.3352 122.285 58.6552C122.157 59.1032 121.901 60.0312 121.517 61.4392C121.133 62.8472 120.877 64.1592 120.749 65.3752C120.621 66.5272 120.589 67.6472 120.653 68.7352C120.717 69.7592 120.781 70.5592 120.845 71.1352C120.973 71.6472 121.261 72.1912 121.709 72.7672Z" fill="#736558"/>
<path d="M110.487 60.4798C110.103 61.8878 109.911 63.0078 109.911 63.8398L109.815 66.7198C109.687 67.9998 109.623 68.9598 109.623 69.5998C109.623 71.0078 109.783 72.1918 110.103 73.1518C110.167 73.4078 110.199 73.7278 110.199 74.1118C110.199 74.6878 110.071 75.4878 109.815 76.5118C109.751 76.6398 109.719 76.7998 109.719 76.9918C109.719 77.2478 110.007 77.3758 110.583 77.3758H110.775C111.287 77.3758 111.543 77.6958 111.543 78.3358C111.543 78.5918 111.383 78.6878 111.063 78.6238C110.743 78.6238 110.551 78.6238 110.487 78.6238C107.607 78.4318 105.687 77.5358 104.727 75.9358C103.767 74.2718 103.127 71.9038 102.807 68.8318C102.743 68.1278 102.711 67.1038 102.711 65.7598C102.711 64.4158 102.775 62.9438 102.903 61.3438C103.031 59.7438 103.127 58.6558 103.191 58.0798C103.319 57.3118 103.447 56.0318 103.575 54.2398C103.575 53.9838 103.543 53.7918 103.479 53.6638C103.223 53.9198 103.095 54.0478 103.095 54.0478C100.151 57.8878 97.975 61.9838 96.567 66.3358C95.095 70.6878 94.167 73.8238 93.783 75.7438C93.591 76.8318 93.399 77.5358 93.207 77.8558C93.079 78.1758 92.823 78.3358 92.439 78.3358C92.119 78.3358 91.383 78.1758 90.231 77.8558C89.655 77.7918 88.279 77.5358 86.103 77.0878C85.143 76.8958 84.471 76.4478 84.087 75.7438C83.703 75.0398 83.479 73.9198 83.415 72.3838C83.415 71.3598 83.479 70.1758 83.607 68.8318C83.735 67.4238 83.831 66.4318 83.895 65.8558L84.183 63.3598C84.247 61.6318 84.599 59.1038 85.239 55.7758C85.495 54.5598 85.655 53.7278 85.719 53.2798C85.911 52.1918 86.199 51.1358 86.583 50.1118L87.159 48.0958C87.351 47.4558 87.671 46.1758 88.119 44.2558C88.951 41.1838 89.431 39.4878 89.559 39.1678L90.999 34.8478L93.495 27.8398L94.359 25.4398C95.255 23.1998 95.799 21.5678 95.991 20.5438C96.055 20.1598 96.151 19.9678 96.279 19.9678C96.471 19.9678 96.727 20.0638 97.047 20.2558C99.095 21.6638 100.663 22.6878 101.751 23.3278C102.455 23.7118 102.903 24.1918 103.095 24.7678C103.287 25.2798 103.447 26.1118 103.575 27.2638C103.575 27.3278 103.543 27.4238 103.479 27.5518C103.415 27.6158 103.351 27.6478 103.287 27.6478C103.095 27.5198 102.839 27.4558 102.519 27.4558C102.199 27.4558 101.975 27.6478 101.847 28.0318C101.783 28.4158 101.719 28.6718 101.655 28.7998C100.887 31.2318 100.279 33.0558 99.831 34.2718C99.575 35.1678 99.223 36.1918 98.775 37.3438C98.391 38.4958 97.975 39.8398 97.527 41.3758C96.695 43.6158 95.799 46.8158 94.839 50.9758C94.711 51.3598 94.679 51.5838 94.743 51.6478C94.935 51.7118 95.063 51.6798 95.127 51.5518C95.191 51.4238 95.255 51.3278 95.319 51.2638C95.447 51.1358 96.055 50.3358 97.143 48.8638C98.295 47.1998 99.287 46.0478 100.119 45.4078C100.951 44.5758 101.815 44.1598 102.711 44.1598C103.351 44.1598 103.991 44.3518 104.631 44.7358L109.815 47.1358C110.455 47.3918 110.967 47.9038 111.351 48.6718C111.735 49.3758 111.927 50.1758 111.927 51.0718C111.927 51.7118 111.831 52.3838 111.639 53.0878C111.447 53.8558 111.287 54.9758 111.159 56.4478L110.871 58.4638L110.487 60.4798ZM93.975 27.5518C93.911 27.5518 93.879 27.5838 93.879 27.6478L94.071 27.7438V27.5518H93.975ZM92.631 32.7358C92.631 32.7998 92.695 32.8318 92.823 32.8318C92.887 32.8318 92.919 32.7678 92.919 32.6398L92.823 32.5438L92.631 32.7358ZM91.191 41.9518C91.191 42.1438 91.319 41.6638 91.575 40.5118V40.2238C91.767 39.5198 91.991 38.8798 92.247 38.3038C92.311 38.2398 92.343 38.1118 92.343 37.9198C92.343 37.7278 92.215 37.4398 91.959 37.0558C91.767 36.6718 91.703 36.3198 91.767 35.9998C91.639 36.3838 91.511 36.7358 91.383 37.0558C91.255 37.3118 91.159 37.5998 91.095 37.9198C91.031 37.9838 90.999 38.1118 90.999 38.3038C91.063 38.4958 91.095 38.6558 91.095 38.7838C91.095 38.5918 91.223 38.3678 91.479 38.1118C91.479 38.0478 91.479 37.9518 91.479 37.8238C91.543 37.6318 91.671 37.5678 91.863 37.6318V38.3038C91.671 38.3038 91.575 38.4638 91.575 38.7838C91.575 39.1038 91.543 39.3598 91.479 39.5518C91.415 39.6798 91.223 39.6158 90.903 39.3598C90.839 39.4878 90.711 39.6798 90.519 39.9358C90.327 40.1918 90.263 40.3518 90.327 40.4158C90.391 40.5438 90.519 40.6078 90.711 40.6078C90.775 40.6078 90.903 40.5438 91.095 40.4158C91.287 40.2238 91.447 40.1598 91.575 40.2238C91.255 40.4158 91.095 40.9278 91.095 41.7598L91.191 41.9518ZM93.687 36.6718L93.783 36.8638L93.879 36.6718L93.783 36.4798L93.687 36.6718ZM90.711 37.3438C90.711 37.4078 90.679 37.4718 90.615 37.5358C90.615 37.5358 90.615 37.5678 90.615 37.6318L90.711 37.8238L90.807 37.4398C90.807 37.3758 90.775 37.3438 90.711 37.3438ZM95.511 38.3998L95.607 38.7838C95.735 38.6558 95.799 38.5918 95.799 38.5918L95.607 38.1118L95.511 38.3998ZM92.247 41.6638C92.247 41.6638 92.311 41.5998 92.439 41.4718L92.151 41.2798L92.055 41.3758L92.247 41.6638ZM90.999 42.6238C90.807 42.8158 90.711 42.9438 90.711 43.0078C90.647 43.0718 90.615 43.1358 90.615 43.1998C90.679 43.2638 90.711 43.3278 90.711 43.3918C90.711 43.3918 90.743 43.3918 90.807 43.3918C90.871 43.3278 90.903 43.2638 90.903 43.1998L90.999 42.6238ZM89.559 47.9038C89.815 47.7758 89.943 47.6478 89.943 47.5198L90.423 45.1198C90.615 44.9278 90.711 44.7358 90.711 44.5438C90.711 44.3518 90.519 44.1278 90.135 43.8718C89.815 43.6158 89.719 43.3598 89.847 43.1038C89.911 43.0398 89.911 42.9758 89.847 42.9118C89.847 42.8478 89.847 42.7838 89.847 42.7198C89.719 42.8478 89.655 42.9758 89.655 43.1038C89.591 43.2318 89.559 43.4558 89.559 43.7758C89.559 44.0318 89.591 44.3198 89.655 44.6398C89.719 44.8958 89.751 45.1518 89.751 45.4078C89.751 45.7918 89.655 46.1438 89.463 46.4638C89.399 46.5278 89.367 46.6878 89.367 46.9438C89.367 47.1358 89.367 47.2958 89.367 47.4238C89.367 47.4878 89.431 47.6478 89.559 47.9038ZM94.167 43.3918C94.039 43.5198 93.911 43.6798 93.783 43.8718C93.655 43.9998 93.527 44.1598 93.399 44.3518L93.591 44.9278C93.975 44.5438 94.231 44.2238 94.359 43.9678L94.167 43.3918ZM91.575 43.8718C91.511 43.8718 91.479 43.9038 91.479 43.9678V44.0638L91.575 43.8718ZM88.599 45.5998C88.599 45.6638 88.567 45.7918 88.503 45.9838C88.503 46.1758 88.599 46.2718 88.791 46.2718C89.047 46.2718 89.143 46.1118 89.079 45.7918C89.079 45.4718 89.175 45.3118 89.367 45.3118C89.431 45.2478 89.431 45.1838 89.367 45.1198C89.367 44.9918 89.303 44.9278 89.175 44.9278C88.919 44.9278 88.759 45.0238 88.695 45.2158C88.631 45.4078 88.599 45.5358 88.599 45.5998ZM92.631 46.4638L92.535 46.2718L92.343 46.4638C92.343 46.5278 92.343 46.5918 92.343 46.6558C92.407 46.6558 92.471 46.6878 92.535 46.7518L92.631 46.4638ZM89.079 50.4958C89.079 50.3038 89.111 50.1438 89.175 50.0158C88.983 50.2078 88.887 50.3038 88.887 50.3038C88.823 50.3678 88.791 50.4638 88.791 50.5918L89.079 50.4958ZM91.863 51.7438C91.671 51.8078 91.575 51.9678 91.575 52.2238C91.575 52.4798 91.543 52.6398 91.479 52.7038C91.543 52.7678 91.543 52.9278 91.479 53.1838C91.415 53.3758 91.447 53.5038 91.575 53.5678C91.703 53.6958 91.767 53.5998 91.767 53.2798L91.863 51.7438ZM93.975 51.9358C93.847 51.8078 93.751 51.7438 93.687 51.7438L93.495 52.0318C93.495 52.0318 93.527 52.0638 93.591 52.1278C93.655 52.1918 93.687 52.1918 93.687 52.1278C93.751 52.1278 93.847 52.0638 93.975 51.9358ZM96.663 52.7998C97.111 52.6078 97.367 52.2878 97.431 51.8398L97.239 51.7438C96.983 51.9358 96.823 52.1598 96.759 52.4158C96.695 52.6078 96.663 52.7358 96.663 52.7998ZM100.887 52.7038C100.951 52.7038 100.951 52.6718 100.887 52.6078L100.791 52.3198L100.695 52.5118C100.823 52.6398 100.887 52.7038 100.887 52.7038ZM96.087 53.3758C96.215 53.3758 96.311 53.4078 96.375 53.4718C96.439 53.3438 96.471 53.1838 96.471 52.9918C96.471 52.9918 96.343 53.1198 96.087 53.3758ZM93.111 54.1438C93.239 53.8878 93.239 53.6638 93.111 53.4718C92.983 53.7278 92.919 53.8878 92.919 53.9518C92.855 54.0158 92.823 54.1118 92.823 54.2398C92.887 54.3678 92.919 54.4318 92.919 54.4318L93.111 54.1438ZM97.431 53.5678C97.367 53.6318 97.271 53.6638 97.143 53.6638L97.239 54.0478C97.303 53.9838 97.335 53.9518 97.335 53.9518C97.399 53.8878 97.431 53.8238 97.431 53.7598V53.5678ZM98.583 56.2558C98.839 56.1278 99.031 55.9038 99.159 55.5838C99.351 55.1998 99.543 54.9758 99.735 54.9118L99.447 54.4318L98.391 55.9678C98.391 56.1598 98.455 56.2558 98.583 56.2558ZM95.319 55.1038C95.191 55.2958 95.031 55.5198 94.839 55.7758C94.711 55.9678 94.583 56.2238 94.455 56.5438C94.327 56.7998 94.263 56.9598 94.263 57.0238L94.359 57.1198C94.551 56.6078 94.807 56.1278 95.127 55.6798L95.319 55.1038ZM95.511 56.6398C95.639 56.4478 95.767 56.2878 95.895 56.1598C96.023 55.9678 96.151 55.7758 96.279 55.5838L96.183 55.3918C96.055 55.6478 95.927 55.8398 95.799 55.9678C95.671 56.0958 95.575 56.2238 95.511 56.3518V56.6398ZM87.831 55.7758L87.735 55.5838L87.639 55.7758V56.0638L87.831 55.7758ZM90.999 56.0638L90.903 55.8718V56.1598H90.999V56.0638ZM97.623 57.5998C97.367 58.1118 97.239 58.4318 97.239 58.5598C97.175 58.5598 97.175 58.5918 97.239 58.6558C97.303 58.7198 97.335 58.7838 97.335 58.8478C97.335 58.7838 97.399 58.6238 97.527 58.3678L97.623 57.5998ZM93.207 59.3278L93.879 58.1758C93.879 58.1758 93.879 58.1438 93.879 58.0798C93.879 58.0158 93.847 57.9518 93.783 57.8878C93.783 57.8878 93.591 58.1758 93.207 58.7518V59.3278ZM94.647 58.5598C94.519 58.6238 94.391 58.7838 94.263 59.0398V59.5198C94.391 59.1358 94.519 58.8798 94.647 58.7518V58.5598ZM90.711 59.5198L90.423 58.8478C90.359 58.9758 90.295 59.1038 90.231 59.2318C90.167 59.2958 90.103 59.3918 90.039 59.5198C89.975 59.5838 89.975 59.7118 90.039 59.9038C90.103 60.0318 90.167 60.1278 90.231 60.1918L90.711 59.5198ZM86.871 60.4798C86.743 60.6078 86.679 60.6718 86.679 60.6718L86.775 60.8638L86.871 60.7678V60.4798ZM86.679 62.6878C86.679 62.5598 86.679 62.4318 86.679 62.3038C86.743 62.1118 86.679 61.9838 86.487 61.9198C86.423 61.9198 86.327 62.0158 86.199 62.2078C86.135 62.3358 86.103 62.4638 86.103 62.5918C86.039 62.7198 86.039 62.8478 86.103 62.9758C86.167 63.1038 86.231 63.1998 86.295 63.2638C86.487 63.3278 86.583 63.2638 86.583 63.0718C86.647 62.8798 86.679 62.7518 86.679 62.6878ZM87.735 62.4958C87.799 62.3678 87.799 62.2718 87.735 62.2078C87.735 62.0798 87.735 61.9838 87.735 61.9198L87.351 62.2078C87.415 62.3998 87.447 62.6558 87.447 62.9758C87.511 62.9118 87.575 62.8478 87.639 62.7838C87.703 62.7198 87.735 62.6238 87.735 62.4958ZM108.375 63.0718L108.663 62.9758L108.471 62.7838C108.471 62.7838 108.439 62.7838 108.375 62.7838C108.375 62.7838 108.375 62.8158 108.375 62.8798V63.0718ZM95.127 63.9358C95.063 63.9358 95.031 63.9358 95.031 63.9358C95.031 63.8718 95.031 63.8398 95.031 63.8398L94.935 64.0318V64.1278L95.127 63.9358ZM108.567 64.2238C108.567 64.5438 108.599 64.7678 108.663 64.8958L108.855 64.5118C108.855 64.2558 108.823 64.0638 108.759 63.9358L108.567 64.2238ZM94.263 65.7598L94.167 66.9118C93.911 66.9118 93.751 67.0078 93.687 67.1998C93.623 67.3918 93.591 67.5198 93.591 67.5838C93.463 67.7758 93.335 68.2558 93.207 69.0238L93.495 69.1198L93.879 67.7758L94.167 66.9118L94.263 66.2398V65.7598ZM109.047 72.1918L108.855 71.5198C108.727 71.6478 108.663 71.7438 108.663 71.8078L108.855 72.2878L109.047 72.1918Z" fill="#736558"/>
<path d="M67.0823 78.2398C64.2663 78.4318 61.5143 77.7278 58.8263 76.1278C57.9943 75.7438 57.3863 75.1038 57.0023 74.2078C56.5543 73.2478 56.3623 72.2558 56.4263 71.2318C56.4263 70.2078 56.5543 68.6718 56.8103 66.6238L57.0023 64.6078L57.5783 60.1918C58.3463 55.7758 59.4983 52.1278 61.0343 49.2478C61.3543 48.7358 61.6103 48.0638 61.8023 47.2318C62.0583 46.3998 62.2503 45.5998 62.3783 44.8318C62.6343 43.4878 63.1783 42.1118 64.0103 40.7038C64.4583 40.0638 65.0023 39.5838 65.6423 39.2638C66.3463 38.9438 67.0183 38.8478 67.6583 38.9758C69.1303 39.1038 70.3783 39.2958 71.4023 39.5518C72.4263 39.8078 73.3223 40.2558 74.0903 40.8958C74.5383 41.3438 75.1463 41.5998 75.9143 41.6638C76.4263 41.8558 76.8423 42.1438 77.1623 42.5278C77.5463 42.9118 77.8983 43.4558 78.2183 44.1598C79.3703 45.8238 80.2023 47.1358 80.7143 48.0958C80.9703 48.4798 81.2903 49.0558 81.6743 49.8238L82.9223 52.0318L90.5063 49.4398C90.9543 49.6958 91.1783 50.0478 91.1783 50.4958C91.1783 50.6238 91.0823 50.9758 90.8903 51.5518L88.8743 54.4318C88.8103 54.6878 88.5543 54.8158 88.1063 54.8158C87.3383 55.1998 85.9623 55.7118 83.9783 56.3518C83.2743 56.6718 82.8903 57.1198 82.8263 57.6958C82.6983 58.2078 82.5063 58.8798 82.2503 59.7118C82.0583 60.5438 81.9303 61.2158 81.8663 61.7278C81.8023 62.0478 81.7063 62.5278 81.5783 63.1678C81.5143 63.8078 81.3863 64.3838 81.1943 64.8958C81.0023 65.3438 80.7143 65.7278 80.3303 66.0478C80.2023 66.1118 80.1063 66.2718 80.0423 66.5278C79.9783 66.7198 79.9463 66.8478 79.9463 66.9118C79.4343 67.9358 78.9223 68.6078 78.4103 68.9278C77.4503 70.0158 76.7463 71.0718 76.2983 72.0958C74.6983 75.0398 72.6183 77.0238 70.0583 78.0478C69.6103 78.2398 69.0343 78.3358 68.3303 78.3358C67.6903 78.2718 67.2743 78.2398 67.0823 78.2398ZM71.2103 54.8158C72.1063 54.7518 73.2583 54.5278 74.6663 54.1438C74.9223 54.0798 75.0823 53.9518 75.1463 53.7598C75.2103 53.5038 75.2423 53.2478 75.2423 52.9918C75.2423 52.3518 75.1783 51.5198 75.0503 50.4958C74.6663 47.5518 73.7703 44.9918 72.3623 42.8158C72.1063 43.0078 71.6903 43.3278 71.1143 43.7758C70.5383 44.1598 70.0903 44.5438 69.7703 44.9278C69.4503 45.3118 69.2583 45.7918 69.1943 46.3678V46.7518C68.6823 47.7758 68.4263 48.7678 68.4263 49.7278C68.4263 51.1998 68.9703 52.6718 70.0583 54.1438C70.3143 54.7198 70.6983 54.9438 71.2103 54.8158ZM64.2983 74.4958C66.8583 71.7438 68.9383 69.0878 70.5383 66.5278C72.2023 63.9678 73.4503 61.2798 74.2823 58.4638L69.0023 56.7358C68.6823 56.6078 67.5943 56.2558 65.7383 55.6798C65.6103 56.2558 65.3223 57.1518 64.8743 58.3678C64.4903 59.5838 64.3303 60.7678 64.3943 61.9198L64.2983 62.7838C64.0423 63.9998 63.8183 65.4718 63.6263 67.1998C63.5623 68.7998 63.6263 70.6238 63.8183 72.6718C63.8183 72.9278 63.9783 73.5358 64.2983 74.4958Z" fill="#736558"/>
<path d="M46.7513 94.944C45.5993 94.88 44.6394 94.4 43.8714 93.504C43.1674 92.672 42.7833 91.68 42.7193 90.528V90.144C42.7193 89.76 42.6234 89.504 42.4314 89.376C42.3674 89.376 42.2393 89.344 42.0473 89.28C41.9193 89.216 41.9193 89.088 42.0473 88.896C42.1753 88.768 42.2393 88.544 42.2393 88.224C42.2393 88.032 42.1434 87.744 41.9514 87.36C41.7594 87.04 41.5993 86.72 41.4713 86.4C41.4073 86.208 41.3113 85.952 41.1833 85.632C41.1193 85.376 41.0874 85.152 41.0874 84.96C41.0874 84.576 41.2474 84.256 41.5674 84C41.7594 83.808 41.8234 83.584 41.7594 83.328C41.6954 83.072 41.6633 82.88 41.6633 82.752V82.56C41.6633 82.304 41.5353 82.208 41.2793 82.272C41.0873 82.4 40.9594 82.432 40.8954 82.368C40.8314 82.048 40.7353 81.632 40.6073 81.12C40.5433 80.672 40.5114 80.288 40.5114 79.968C40.5114 79.712 40.5754 79.328 40.7034 78.816C41.2154 77.984 41.4713 76.992 41.4713 75.84C41.4713 75.2 41.4394 74.656 41.3754 74.208C41.3114 73.76 41.2473 73.376 41.1833 73.056V72.672C41.1833 72.288 41.2474 71.776 41.3754 71.136L41.4713 70.176C41.4713 69.792 41.3113 69.472 40.9913 69.216C40.8633 69.152 40.7674 69.024 40.7034 68.832C40.7034 68.64 40.7674 68.512 40.8954 68.448C41.3434 67.936 41.5674 67.2 41.5674 66.24C41.5674 65.216 41.6314 64.512 41.7594 64.128V63.456C41.7594 62.752 41.8553 62.272 42.0473 62.016C43.9033 50.56 45.0873 44.768 45.5993 44.64C45.7913 44.512 45.8873 44.288 45.8873 43.968C45.6953 43.392 45.5993 43.072 45.5993 43.008C45.5993 42.688 45.8554 42.432 46.3674 42.24C46.3674 42.176 46.3034 42.048 46.1754 41.856C46.1114 41.6 46.1114 41.344 46.1754 41.088C46.3034 40.64 46.5274 40 46.8474 39.168C47.1674 38.272 47.2633 37.44 47.1353 36.672C47.1353 36.608 47.1674 36.576 47.2314 36.576C47.2954 36.576 47.3273 36.544 47.3273 36.48C47.4553 36.224 47.5833 35.808 47.7113 35.232C47.9033 34.592 47.9674 34.208 47.9034 34.08C47.9034 33.952 47.9674 33.696 48.0954 33.312C48.9914 31.328 49.5354 29.76 49.7274 28.608C50.4954 26.752 51.1673 24.928 51.7433 23.136L52.9913 20.16L53.8553 18.144C53.9193 17.568 54.1114 17.216 54.4314 17.088C55.3274 15.68 55.9994 14.176 56.4474 12.576C57.3434 11.232 57.8233 10.496 57.8873 10.368C59.9353 7.232 61.6954 4.672 63.1674 2.688C64.3194 1.536 65.1194 0.799999 65.5674 0.48C65.8874 0.16 66.3674 0 67.0074 0C67.2634 0 67.6473 0.0639992 68.1593 0.191998C70.0793 0.896 71.8074 1.792 73.3434 2.88C74.3034 3.648 74.7834 4.48 74.7834 5.376C74.7834 6.016 74.5274 6.752 74.0154 7.584C73.6313 7.968 73.3753 8.352 73.2473 8.736C73.1833 9.12 73.1514 9.6 73.1514 10.176C73.0234 10.944 72.8313 11.584 72.5753 12.096C72.3833 12.544 71.9994 12.864 71.4234 13.056C71.2954 13.12 71.1674 13.28 71.0394 13.536C70.9754 14.112 70.6553 14.816 70.0793 15.648C69.5033 16.416 69.1513 16.992 69.0233 17.376C69.0233 17.44 68.9594 17.6 68.8314 17.856C68.7034 18.048 68.6714 18.24 68.7354 18.432C68.5434 19.264 68.1593 20.16 67.5833 21.12C67.0713 22.08 66.6874 22.816 66.4314 23.328C66.3034 23.84 65.8554 24.16 65.0874 24.288C64.0634 27.552 62.8794 29.824 61.5354 31.104C61.2794 31.36 61.1514 31.584 61.1514 31.776C61.0874 32.16 60.8953 32.544 60.5753 32.928C60.2553 33.312 60.0314 33.6 59.9034 33.792C58.9434 35.008 58.3353 36.064 58.0793 36.96C57.8233 37.728 57.4073 38.528 56.8313 39.36C56.3193 40.128 55.9994 40.64 55.8714 40.896C55.8074 41.024 55.7113 41.216 55.5833 41.472C55.4553 41.664 55.3914 41.856 55.3914 42.048C55.3274 42.944 55.0714 43.872 54.6234 44.832C54.1754 45.792 53.8874 46.432 53.7594 46.752C53.4394 47.456 53.1833 48.288 52.9913 49.248C52.7993 50.016 52.5433 50.912 52.2233 51.936L51.3593 56.64L49.6313 63.36C49.5033 65.408 49.4393 66.912 49.4393 67.872L49.3434 70.08L49.2473 76.224C49.2473 77.568 49.2794 78.56 49.3434 79.2C49.4074 81.568 49.5033 83.52 49.6313 85.056C49.7593 86.592 50.0473 88.128 50.4953 89.664C50.6873 90.688 50.9753 91.392 51.3593 91.776C51.8073 92.16 52.5753 92.512 53.6633 92.832C53.9193 93.024 54.1434 93.408 54.3354 93.984L54.1434 94.272C53.8874 94.592 53.5673 94.752 53.1833 94.752C52.8633 94.816 52.6394 94.88 52.5114 94.944C51.3594 95.072 50.4954 95.136 49.9194 95.136C49.3434 95.136 48.2873 95.072 46.7513 94.944ZM48.5753 65.184C48.7673 64.672 48.7673 64.256 48.5753 63.936C48.1913 64.32 48.1913 64.736 48.5753 65.184ZM47.9034 70.944C48.2874 70.752 48.4794 70.496 48.4794 70.176C48.4794 69.984 48.4154 69.792 48.2874 69.6C48.2234 69.408 48.1913 69.184 48.1913 68.928C48.1273 69.056 47.9994 69.248 47.8074 69.504C47.6154 69.76 47.5193 70.016 47.5193 70.272C47.5193 70.528 47.6474 70.752 47.9034 70.944ZM48.0954 78.912C48.1594 78.848 48.1913 78.592 48.1913 78.144C47.9993 78.336 47.9034 78.464 47.9034 78.528C47.9034 78.592 47.9034 78.656 47.9034 78.72C47.9034 78.848 47.9674 78.912 48.0954 78.912Z" fill="#736558"/>
<path d="M44.4406 47.5199C45.1446 49.1199 45.4006 50.5919 45.2086 51.9359V53.4719C45.0806 54.1759 44.8566 54.6879 44.5366 55.0079C44.2166 55.3279 43.7046 55.4879 43.0006 55.4879C42.1046 55.4879 41.4006 55.4559 40.8886 55.3919C40.5046 55.3919 40.0566 55.3919 39.5446 55.3919C39.0326 55.3279 38.4246 55.3279 37.7206 55.3919C37.3366 55.3919 36.8566 55.4239 36.2806 55.4879C35.7046 55.4879 35.0326 55.5519 34.2646 55.6799C34.2006 56.1919 34.0406 56.9599 33.7846 57.9839C33.3366 60.0319 33.1446 61.7919 33.2086 63.2639V63.7439C33.2086 64.3199 33.0806 65.0559 32.8246 65.9519C32.6966 66.0159 32.5686 66.0159 32.4406 65.9519C32.3766 65.8239 32.3126 65.7919 32.2486 65.8559L32.1526 66.0479V67.6799C32.1526 67.6799 32.1526 67.7759 32.1526 67.9679C32.1526 68.1599 32.0246 68.2879 31.7686 68.3519C31.7046 68.3519 31.6406 68.3839 31.5766 68.4479C31.5126 68.5119 31.5126 68.5759 31.5766 68.6399C31.7046 68.7679 31.7686 68.9599 31.7686 69.2159C31.7686 69.5999 31.8326 69.8559 31.9606 69.9839C32.0886 70.1119 32.0886 70.3039 31.9606 70.5599C31.7686 70.9439 31.6726 71.2959 31.6726 71.6159C31.6726 72.0639 31.7686 72.4799 31.9606 72.8639C32.0246 72.9919 32.0246 73.1519 31.9606 73.3439C31.8966 73.4719 31.8646 73.5999 31.8646 73.7279L31.7686 74.3039C31.7686 74.4319 31.8326 74.7519 31.9606 75.2639C32.0886 75.6479 32.0886 76.0319 31.9606 76.4159C31.8966 77.1199 31.9926 77.9199 32.2486 78.8159C32.5046 79.7759 32.8246 80.4799 33.2086 80.9279H32.8246C31.9286 80.9279 31.0646 80.6079 30.2326 79.9679C28.2486 78.4959 27.0326 76.7359 26.5846 74.6879C26.4566 74.3039 26.2326 73.6319 25.9126 72.6719C25.6566 71.6479 25.5606 70.7519 25.6246 69.9839C25.6246 69.7919 25.5606 69.5679 25.4326 69.3119C25.3686 68.9919 25.3686 68.7359 25.4326 68.5439C25.4326 68.2239 25.5286 67.9999 25.7206 67.8719C25.7846 67.8719 25.8166 67.8719 25.8166 67.8719C25.8806 67.8079 25.8486 67.7439 25.7206 67.6799C25.2086 67.4239 25.1126 67.0079 25.4326 66.4319C25.4966 66.3039 25.5926 66.1439 25.7206 65.9519C25.8486 65.7599 25.8806 65.5999 25.8166 65.4719C25.8166 65.2799 25.6886 65.1199 25.4326 64.9919C25.3046 64.8639 25.2406 64.6719 25.2406 64.4159C25.1766 63.4559 25.2086 62.0159 25.3366 60.0959C25.4646 59.5199 25.4966 58.9119 25.4326 58.2719C25.4326 57.5679 25.4326 57.0879 25.4326 56.8319C25.2406 56.7039 24.9526 56.7039 24.5686 56.8319C21.8166 57.2799 18.8406 57.9199 15.6406 58.7519C15.3206 58.8159 15.0646 59.0079 14.8726 59.3279C14.7446 59.6479 14.5206 60.0959 14.2006 60.6719C13.8806 61.1839 13.7206 61.6959 13.7206 62.2079C13.7206 62.3359 13.6246 62.4959 13.4326 62.6879C13.1126 63.0079 12.9846 63.5199 13.0486 64.2239C13.0486 64.6719 12.9846 64.9919 12.8566 65.1839H12.9526C12.2486 65.9519 11.6086 67.0399 11.0326 68.4479C10.2646 69.8559 9.75261 70.7199 9.49661 71.0399C9.24061 70.7839 9.11262 70.4959 9.11262 70.1759C8.85662 70.3039 8.63261 70.4959 8.44061 70.7519C8.24861 70.9439 8.02461 71.2639 7.76861 71.7119C7.64061 71.8399 7.57661 71.9039 7.57661 71.9039C7.57661 72.3519 7.44861 72.9279 7.19261 73.6319C6.93661 74.2719 6.80862 74.7519 6.80862 75.0719C6.80862 75.3279 6.68061 75.5199 6.42461 75.6479C6.23261 75.7759 6.07262 75.9039 5.94462 76.0319C5.88062 76.1599 5.84862 76.3199 5.84862 76.5119C5.91262 76.6399 5.94462 76.7359 5.94462 76.7999C6.00862 76.8639 6.04062 76.9919 6.04062 77.1839C6.04062 77.3759 5.94462 77.6319 5.75262 77.9519C5.43262 78.2719 5.24061 78.6239 5.17661 79.0079C5.17661 79.5839 4.98462 80.2879 4.60062 81.1199C4.28062 82.0159 4.08861 82.6879 4.02461 83.1359C3.51261 83.2639 3.16061 83.3279 2.96861 83.3279C2.58461 83.3279 1.94461 83.1999 1.04861 82.9439C0.664613 82.6879 0.408615 82.4639 0.280615 82.2719C0.0886152 81.7599 0.18461 81.4079 0.56861 81.2159V81.0239H0.472617C0.344617 80.8959 0.280615 80.7679 0.280615 80.6399C0.280615 80.5759 0.344617 80.5439 0.472617 80.5439L0.376616 79.9679C0.376616 79.5199 0.504611 79.1359 0.760611 78.8159C0.760611 78.7519 0.824612 78.6559 0.952612 78.5279C1.01661 78.3999 0.984612 78.2719 0.856612 78.1439C0.792612 77.9519 0.792612 77.7919 0.856612 77.6639L0.472617 77.3759C-0.0393834 77.0559 -0.135385 76.6399 0.184615 76.1279C0.504615 75.8079 0.600617 75.4879 0.472617 75.1679C0.472617 75.1039 0.472617 75.0399 0.472617 74.9759C0.408617 74.8479 0.408617 74.7519 0.472617 74.6879C0.600617 74.2399 0.728612 73.7279 0.856612 73.1519C0.920612 72.5759 1.01661 72.0959 1.14461 71.7119L1.91261 69.1199C2.23261 67.7759 2.71261 66.2719 3.35261 64.6079C3.54461 64.0959 3.76861 63.5199 4.02461 62.8799C4.21661 62.1759 4.47262 61.4399 4.79262 60.6719L5.08061 59.9999C5.14461 59.8079 5.17661 59.5519 5.17661 59.2319C5.17661 58.5919 4.72862 58.3679 3.83262 58.5599C3.70462 58.4959 3.64062 58.3999 3.64062 58.2719C3.57662 58.0799 3.51261 57.9199 3.44861 57.7919C3.19261 57.5999 3.06461 57.3759 3.06461 57.1199C3.06461 56.8639 3.25662 56.6399 3.64062 56.4479C3.83262 56.4479 3.92861 56.3839 3.92861 56.2559C3.99261 55.2959 4.56861 54.5279 5.65661 53.9519C6.04061 53.6959 6.39261 53.4399 6.71261 53.1839C7.03261 52.9279 7.38461 52.6719 7.76861 52.4159C8.15261 52.3519 8.50461 52.0319 8.82461 51.4559C9.14461 51.0719 9.49661 50.4319 9.88061 49.5359C10.2006 48.6399 10.6166 47.9359 11.1286 47.4239C11.4486 46.2719 11.9286 45.0879 12.5686 43.8719C13.2726 42.6559 13.7206 41.8879 13.9126 41.5679C15.0646 39.5199 15.8966 37.9519 16.4086 36.8639C16.5366 36.6719 16.6646 36.5439 16.7926 36.4799C16.9846 36.3519 17.1766 36.3199 17.3686 36.3839C17.4326 36.2559 17.5926 35.9359 17.8486 35.4239C18.1046 34.8479 18.4566 34.3999 18.9046 34.0799C18.9686 34.0159 19.0326 33.8559 19.0966 33.5999C19.1606 33.2799 19.2566 33.0559 19.3846 32.9279L19.2886 32.5439C19.2886 32.3519 19.3846 32.1599 19.5766 31.9679C19.7686 31.7119 19.8966 31.5199 19.9606 31.3919C20.0246 31.2639 20.1526 30.8799 20.3446 30.2399C20.6006 29.5359 20.9526 28.9279 21.4006 28.4159C21.9126 27.8399 22.4246 27.0399 22.9366 26.0159C23.1286 25.6319 23.3846 25.3119 23.7046 25.0559C23.6406 24.9919 23.6086 24.8959 23.6086 24.7679C23.6086 24.6399 23.7046 24.4799 23.8966 24.2879C24.1526 24.0319 24.3126 23.8399 24.3766 23.7119V23.6159C24.3766 23.2319 24.7926 23.0399 25.6246 23.0399C25.4966 22.5279 25.5286 22.0479 25.7206 21.5999C25.9766 21.1519 26.2326 20.7359 26.4886 20.3519C26.8086 19.9679 27.0006 19.7119 27.0646 19.5839C27.5126 18.9439 27.8966 18.3999 28.2166 17.9519C28.6006 17.4399 28.9206 16.9919 29.1766 16.6079C29.4326 16.2239 29.6566 16.0319 29.8486 16.0319C30.0406 15.9679 30.2966 16.0639 30.6166 16.3199C32.2166 17.3439 33.5286 18.5919 34.5526 20.0639C35.1286 20.8319 35.4806 21.3119 35.6086 21.5039C35.8646 21.8879 36.2486 22.2079 36.7606 22.4639C37.2726 22.7199 37.6886 22.9439 38.0086 23.1359C39.5446 24.0959 40.6966 25.0559 41.4646 26.0159C41.7846 26.3999 41.8806 26.8159 41.7526 27.2639C41.6886 27.4559 41.6246 27.6479 41.5606 27.8399C41.5606 27.9679 41.5286 28.0959 41.4646 28.2239C40.6326 30.2079 39.8966 32.2239 39.2566 34.2719C38.6806 36.3199 38.0086 38.9119 37.2406 42.0479C37.1126 42.4959 36.8246 43.8079 36.3766 45.9839C36.7606 45.9839 37.2086 46.0159 37.7206 46.0799C38.2966 46.0799 38.9366 46.0479 39.6406 45.9839C40.4726 45.9839 41.6566 46.1119 43.1926 46.3679C43.7686 46.6239 44.1846 47.0079 44.4406 47.5199ZM30.3286 31.2959L29.9446 31.7759C29.4326 32.5439 28.5046 34.2079 27.1606 36.7679C25.4326 39.6479 24.3446 41.5359 23.8966 42.4319C23.0646 44.0319 22.3286 45.2799 21.6886 46.1759C21.2406 46.8799 21.0806 47.4559 21.2086 47.9039C21.2086 48.1599 21.1766 48.3519 21.1126 48.4799C21.4966 48.3519 21.7526 48.3199 21.8806 48.3839C22.2006 48.3839 22.3926 48.2879 22.4566 48.0959C22.6486 47.6479 23.1606 47.3599 23.9926 47.2319C24.5686 47.2319 25.4326 47.1679 26.5846 47.0399L30.3286 31.2959ZM18.0406 35.4239L17.9446 35.3279L17.8486 35.5199H17.9446L18.0406 35.4239ZM24.8566 48.0959C24.9846 48.0959 25.0166 48.0319 24.9526 47.9039H24.8566V47.9999V48.0959ZM4.79262 56.6399C4.79262 56.6399 4.72862 56.6399 4.60062 56.6399V56.8319H4.79262V56.6399ZM3.64062 81.5999C3.64062 81.4719 3.64062 81.4079 3.64062 81.4079C3.64062 81.3439 3.64062 81.3119 3.64062 81.3119C3.57662 81.3759 3.54462 81.4079 3.54462 81.4079L3.64062 81.5999Z" fill="#736558"/>
</svg>
