<svg width="937" height="500" viewBox="0 0 937 500" fill="none" xmlns="http://www.w3.org/2000/svg">
<path fill-rule="evenodd" clip-rule="evenodd" d="M911.363 157.23L908.363 153.83L903.833 153.98C834.873 156.26 823.343 144.64 803.933 124.36C789.983 109.79 772.613 91.65 731.923 72.47C702.893 58.81 676.023 51.89 652.073 51.89C611.273 51.89 590.913 71.89 585.733 77.88C562.003 92.76 541.093 100.29 523.563 100.29C481.203 100.29 470.723 54.64 470.313 52.73L469.683 49.8L467.503 47.74C433.433 15.61 404.363 0 378.613 0C308.143 0 300.613 115.63 300.333 120.55L300.173 123.22L301.423 125.59C346.003 210.44 411.493 228.25 458.573 228.25C470.773 228.25 483.263 227.04 495.713 224.64C496.933 224.41 498.123 224.28 499.293 224.28C531.013 224.28 540.573 303.53 561.923 348.36L562.303 357L570.933 357.54C584.073 358.36 596.853 358.77 608.903 358.77C707.033 358.77 731.743 370.49 740.943 360.83C820.293 341.55 863.323 308.73 870.833 302.63C907.573 285.84 929.193 263.52 935.083 236.27C944.033 194.89 912.713 158.75 911.363 157.23ZM879.463 218.54C874.783 229 866.663 210.6 862.503 223.32C834.733 218.78 883.263 202.71 858.263 201.51C866.793 192.15 868.323 186.96 887.703 190.65C889.903 205.64 861.313 211.89 879.473 218.54H879.463ZM829.173 183.41C847.063 166.66 824.363 198.94 810.993 195.11C811.503 200.91 817.663 203.08 816.433 210C833.403 213.58 842.493 207.74 843.703 192.46C865.593 201.57 850.743 204.01 846.713 221.19C758.833 235.09 840.763 185.43 782.473 219.57C770.323 207.16 801.873 176.3 815.843 167.44C822.393 176.65 786.413 204.86 829.173 183.41ZM853.983 271.74C851.113 279.38 845.393 274.5 846.093 270.67C822.713 262.21 832.303 293.22 804.273 279.16C805.493 272.25 792.883 269.7 794.083 262.78C813.663 264.5 846.053 262.51 853.983 271.74ZM492.093 205.75C480.843 207.91 469.573 209.01 458.583 209.01C417.243 209.01 359.823 193.33 319.743 119.07C321.183 103.09 330.973 19.23 378.623 19.23C398.473 19.23 423.223 32.87 452.233 59.78C454.553 68.65 459.353 79.9 467.013 90.25C453.233 86.33 434.963 93.91 428.113 104.53C451.033 121.32 443.663 125.8 478.403 139.66C444.863 138.74 425.693 128.58 409.893 116.23C398.893 139.33 408.753 142.8 379.543 144.1C378.623 128.69 355.113 133.94 347.513 125.51C363.193 166.2 436.813 211.58 494.903 195.37C498.723 199.03 502.543 201.6 506.423 203.59C504.113 203.59 501.743 204.04 499.293 205.04C497.103 205.94 494.493 205.28 492.083 205.74L492.093 205.75ZM517.973 207.58C529.033 209.7 541.033 208.07 555.373 206.73C515.793 222.43 703.693 220.47 622.433 243.7C624.293 241.07 626.083 238.42 620.403 236.45C604.113 250.47 565.093 223.63 537.803 224.41C546.833 244.9 553.143 254.33 556.213 266.61C582.553 240.98 617.423 297.99 647.053 268.38C608.613 273.98 593.073 256.74 558.513 244.35C588.623 239.79 614.693 264 625.823 251.35C618.593 249.53 620.213 246.83 622.153 244.08C632.413 245.47 642.693 246.86 652.983 248.25C662.013 230.16 639.753 232.2 642.053 218.45C648.463 217.73 657.633 220.36 659.043 213.66C610.253 208.01 592.773 216.81 533.183 189.88C530.493 195 523.653 202.24 515.953 201.39C529.193 169.67 550.893 186.17 562.663 165.23C544.593 204.42 603.093 169.57 573.573 195.03C595.853 181.93 694.053 211.67 677.233 201.97C667.093 183.59 632.553 191.53 630.643 182.98C637.153 174.04 655.023 183.75 658.453 171.11C620.903 172.1 652.103 159.11 637.243 154.08C572.123 131.85 574.063 120.83 633.593 174.83C619.753 189.57 572.883 179.93 563.873 158.31C573.153 161.82 612.753 163.79 588.743 154.58C535.513 138.79 564.463 169.66 528.693 174.78C523.513 165.86 521.563 154.84 526.913 139.13C494.753 133.23 460.053 128.96 451.753 107.72C463.423 109.63 470.723 106.28 475.663 100.13C487.073 111.2 502.733 119.51 523.563 119.51C544.393 119.51 569.933 110.69 597.323 93.29L598.833 92.29L599.873 90.92C600.493 90.11 615.383 71.11 652.063 71.11C673.153 71.11 697.273 77.42 723.713 89.86C756.683 105.4 773.013 120.2 785.223 132.68C746.073 107.01 707.503 77.75 660.563 77.1C683.313 82.92 687.353 131.46 698.823 144.53C690.923 143.44 688.473 148.86 681.843 149.31C678.353 131.12 654.293 110.91 655.973 89.38C609.653 80.26 596.753 118.26 645.993 98.59C655.513 129.28 682.083 155.31 700.633 180.17C713.083 180.16 734.803 149.85 715.813 139.75C720.203 154.92 689.913 168.04 689.733 150.38C724.193 163.76 695.003 109.23 719.653 110.86C718.243 124.05 747.103 113.48 741.883 129.11C730.153 148.54 727.143 178.43 707.293 188.16C740.893 192.12 733.143 146.56 756.423 138.17C766.323 155.58 759.773 167.97 775.213 169.03C760.973 171.66 709.843 205.86 746.703 193.5C744.573 204.13 775.173 170.33 800.073 165.32C742.773 198.45 719.333 274.83 637.553 299.62C639.033 342.55 581.533 328.01 572.653 311.54C598.233 310.16 604.703 316.7 613.263 309.97C605.773 291.62 582.613 313.6 582.963 298.78C600.363 283.33 647.793 303.86 658.743 280.72C622.973 285.81 571.153 275.88 560.043 269.7C561.833 282.52 562.673 294.09 564.873 304.63C552.713 270.16 538.093 221.67 517.973 207.59V207.58ZM738.783 284.46C718.553 275.5 759.263 264.79 763.633 280.74C754.013 288.74 751.433 305.2 741.803 313.2C735.543 307.99 729.173 302.93 726.043 311.05C703.723 296.97 743.973 288.84 754.543 286.6C754.133 277.63 740.103 277.49 738.783 284.46ZM916.283 232.2C911.693 253.45 893.343 271.43 861.743 285.63L859.413 287.11C858.993 287.47 816.843 323.18 733.483 342.84L729.953 343.67L727.853 346.63C727.633 346.94 590.433 339.3 580.703 338.82C578.293 336.41 575.823 332.02 573.263 326.32C575.843 330.39 578.923 334.31 583.073 337.97C722.893 332.38 779.513 364.83 916.863 225.94C905.013 218.33 898.363 187.04 891.523 173.42C894.183 173.4 896.793 173.39 899.633 173.32C906.153 182.07 921.863 206.47 916.293 232.19L916.283 232.2Z" fill="#736558"/>
<path fill-rule="evenodd" clip-rule="evenodd" d="M151.213 118.33L149.513 117.57L147.653 117.5C136.273 117.11 125.773 116.92 116.063 116.92C43.5426 116.92 6.93267 127.38 0.842673 149.85C-5.82733 174.46 28.8527 199.24 43.1227 208.24L49.7726 291.87C51.8026 303.96 64.5727 326.81 98.3427 326.81C123.933 326.81 157.653 313.7 198.583 287.84C233.093 266.03 249.613 241.7 247.703 215.53C243.623 159.9 154.993 119.99 151.223 118.32L151.213 118.33ZM188.303 271.61C141.223 301.36 113.393 307.6 98.3327 307.6C74.3127 307.6 69.5026 292.05 68.7826 288.94L61.4926 196.84L57.1627 194.31C37.3927 182.71 17.0127 163.67 19.3927 154.89C20.2427 151.76 28.8926 136.16 116.053 136.16C125.023 136.16 134.673 136.32 145.083 136.67C168.953 147.62 225.873 181.1 228.503 216.96C229.863 235.51 216.333 253.89 188.293 271.62L188.303 271.61Z" fill="#736558"/>
<path fill-rule="evenodd" clip-rule="evenodd" d="M462.902 380.099C441.322 381.779 433.712 386.979 424.092 393.559C417.282 398.219 408.802 404.009 391.202 410.999C344.852 429.349 329.602 470.369 328.992 472.109L325.742 481.109L376.582 499.749L426.432 478.519C434.432 480.259 442.172 481.139 449.522 481.139C477.682 481.139 491.342 468.549 492.812 467.109L495.092 464.869L495.582 461.709C496.402 456.409 503.082 409.389 485.992 389.459C480.162 382.649 472.282 379.359 462.892 380.099H462.902ZM477.092 455.009C473.162 457.539 464.242 461.909 449.522 461.909C442.742 461.909 435.442 460.969 427.822 459.109L424.712 458.349L376.042 479.069L351.322 470.009C357.772 458.729 372.112 439.239 398.282 428.869C417.862 421.089 427.722 414.359 434.922 409.439C443.582 403.529 447.912 400.559 464.392 399.279L465.392 399.239C467.932 399.239 469.732 400.059 471.382 401.979C479.352 411.269 479.192 437.929 477.082 455.019L477.092 455.009Z" fill="#736558"/>
<path fill-rule="evenodd" clip-rule="evenodd" d="M130.392 155.09C141.982 165.03 149.802 185.34 131.052 193.33C155.392 209.81 162.842 233.95 175.402 255.78C144.512 263.85 157.572 243.87 121.682 258.1C127.302 248.83 160.622 240.96 147.422 229.94C143.212 236.85 136.192 237.48 129.222 238.18C131.132 229.98 137.472 219.77 130.132 215.75C118.022 256.72 94.2122 262.25 123.272 273.9C111.352 267.66 105.882 275.83 94.3723 270.47C95.9623 248.51 135.892 212.95 114.432 217.36C110.452 224.78 108.432 236.64 100.292 234.76C102.922 224.4 111.912 211.16 103.732 205.68C14.2422 333.17 164.862 297.91 202.722 243.4C196.272 233.49 196.222 220.65 192.982 209.3C166.862 218.73 168.142 151.12 130.402 155.08L130.392 155.09Z" fill="#736558"/>
<path fill-rule="evenodd" clip-rule="evenodd" d="M92.1228 216.449C94.7228 178.239 141.913 199.199 131.993 170.889C103.963 154.549 135.193 192.95 107.173 176.62C111.043 164.87 116.443 156.529 123.803 152.579C90.5927 143.639 57.9429 135.919 38.6729 158.129C44.4629 183.009 76.8228 195.869 92.1328 216.459L92.1228 216.449Z" fill="#736558"/>
<path fill-rule="evenodd" clip-rule="evenodd" d="M370.213 82.8094C370.413 82.8894 370.533 83.0094 370.743 83.0794C382.233 69.6194 382.413 69.4994 407.133 59.6794C410.123 78.1694 370.683 87.2894 391.953 100.099C412.963 84.8394 412.793 55.4194 419.253 82.5494C422.873 72.9394 442.863 79.6594 447.263 70.9494C428.073 52.1894 349.573 34.0794 358.633 60.1894C387.253 41.2594 357.703 69.7194 366.603 80.2994C348.143 89.2094 342.283 102.829 345.243 117.719C345.313 116.739 345.393 115.749 345.653 114.599C400.943 112.529 351.483 106.519 370.213 82.7994V82.8094Z" fill="#736558"/>
<path fill-rule="evenodd" clip-rule="evenodd" d="M347.532 125.519C346.522 122.899 345.752 120.299 345.242 117.739C344.992 121.209 345.882 123.699 347.532 125.519Z" fill="#736558"/>
<path fill-rule="evenodd" clip-rule="evenodd" d="M458.242 407.01C439.612 400.32 426.242 423.98 433.492 426.81C436.762 420.16 444.072 417.59 453.302 416.91C453.082 423.72 455.622 427.78 458.242 431.76C441.312 434.82 417.582 456.84 408.742 451.56C411.322 446.84 430.952 435.13 418.652 431.76C417.122 443.43 401.452 440.96 403.802 456.51C422.392 461.84 466.962 454.93 478.052 436.72C463.462 434.81 466.702 415.07 458.242 407.02V407.01Z" fill="#736558"/>
</svg>
