<svg width="313" height="30" viewBox="0 0 313 30" fill="none" xmlns="http://www.w3.org/2000/svg">
<rect width="1.02891" height="1.02872" transform="matrix(1 0 0 -1 18.7579 27.4626)" fill="#FF9500"/>
<rect width="1.02891" height="1.02872" transform="matrix(1 0 0 -1 19.7869 27.4626)" fill="#FF9500"/>
<rect width="1.02891" height="1.02872" transform="matrix(1 0 0 -1 20.8157 27.4626)" fill="#FF9500"/>
<rect width="1.02891" height="1.02872" transform="matrix(1 0 0 -1 21.8446 27.4626)" fill="#FF9500"/>
<rect width="1.02891" height="1.02872" transform="matrix(1 0 0 -1 22.8735 27.4626)" fill="#FF9500"/>
<rect width="1.02891" height="1.02872" transform="matrix(1 0 0 -1 23.9025 27.4626)" fill="#FF9500"/>
<rect width="1.02891" height="1.02872" transform="matrix(1 0 0 -1 23.9025 26.4338)" fill="#FF9500"/>
<rect width="1.02891" height="1.02872" transform="matrix(1 0 0 -1 24.9314 26.4338)" fill="#FF9500"/>
<rect width="1.02891" height="1.02872" transform="matrix(1 0 0 -1 25.9602 26.4338)" fill="#FF9500"/>
<rect width="1.02891" height="1.02872" transform="matrix(1 0 0 -1 25.9602 25.4053)" fill="#FF9500"/>
<rect width="1.02891" height="1.02872" transform="matrix(1 0 0 -1 26.9891 25.4053)" fill="#FF9500"/>
<rect width="1.02891" height="1.02872" transform="matrix(1 0 0 -1 26.9891 24.3765)" fill="#FF9500"/>
<rect width="1.02891" height="1.02872" transform="matrix(1 0 0 -1 28.0181 24.3765)" fill="#FF9500"/>
<rect width="1.02891" height="1.02872" transform="matrix(1 0 0 -1 29.047 24.3765)" fill="#FF9500"/>
<rect width="1.02891" height="1.02872" transform="matrix(1 0 0 -1 29.047 23.3479)" fill="#FF9500"/>
<rect width="1.02891" height="1.02872" transform="matrix(1 0 0 -1 30.0759 23.3479)" fill="#FF9500"/>
<rect width="1.02891" height="1.02872" transform="matrix(1 0 0 -1 30.0759 22.3191)" fill="#FF9500"/>
<rect width="1.02891" height="1.02872" transform="matrix(1 0 0 -1 30.0759 21.2903)" fill="#FF9500"/>
<rect width="1.02891" height="1.02872" transform="matrix(1 0 0 -1 31.1047 21.2903)" fill="#FF9500"/>
<rect width="1.02891" height="1.02872" transform="matrix(1 0 0 -1 32.1337 21.2903)" fill="#FF9500"/>
<rect width="1.02891" height="1.02872" transform="matrix(1 0 0 -1 32.1337 22.3191)" fill="#FF9500"/>
<rect width="1.02891" height="1.02872" transform="matrix(1 0 0 -1 32.1337 23.3479)" fill="#FF9500"/>
<rect width="1.02891" height="1.02872" transform="matrix(1 0 0 -1 31.1047 22.3191)" fill="#FF9500"/>
<rect width="1.02891" height="1.02872" transform="matrix(1 0 0 -1 31.1047 23.3479)" fill="#FF9500"/>
<rect width="1.02891" height="1.02872" transform="matrix(1 0 0 -1 31.1047 24.3765)" fill="#FF9500"/>
<rect width="1.02891" height="1.02872" transform="matrix(1 0 0 -1 30.0759 24.3765)" fill="#FF9500"/>
<rect width="1.02891" height="1.02872" transform="matrix(1 0 0 -1 30.0759 25.4053)" fill="#FF9500"/>
<rect width="1.02891" height="1.02872" transform="matrix(1 0 0 -1 29.047 25.4053)" fill="#FF9500"/>
<rect width="1.02891" height="1.02872" transform="matrix(1 0 0 -1 28.0181 25.4053)" fill="#FF9500"/>
<rect width="1.02891" height="1.02872" transform="matrix(1 0 0 -1 28.0181 26.4338)" fill="#FF9500"/>
<rect width="1.02891" height="1.02872" transform="matrix(1 0 0 -1 26.9891 26.4338)" fill="#FF9500"/>
<rect width="1.02891" height="1.02872" transform="matrix(1 0 0 -1 25.9602 27.4626)" fill="#FF9500"/>
<rect width="1.02891" height="1.02872" transform="matrix(1 0 0 -1 24.9314 27.4626)" fill="#FF9500"/>
<rect width="1.02891" height="1.02872" transform="matrix(1 0 0 -1 24.9314 28.4915)" fill="#FF9500"/>
<rect width="1.02891" height="1.02872" transform="matrix(1 0 0 -1 23.9025 28.4915)" fill="#FF9500"/>
<rect width="1.02891" height="1.02872" transform="matrix(1 0 0 -1 22.8735 28.4915)" fill="#FF9500"/>
<rect width="1.02891" height="1.02872" transform="matrix(1 0 0 -1 22.8735 29.5203)" fill="#FF9500"/>
<rect width="1.02891" height="1.02872" transform="matrix(1 0 0 -1 21.8446 28.4915)" fill="#FF9500"/>
<rect width="1.02891" height="1.02872" transform="matrix(1 0 0 -1 21.8446 29.5203)" fill="#FF9500"/>
<rect width="1.02891" height="1.02872" transform="matrix(1 0 0 -1 20.8157 28.4915)" fill="#FF9500"/>
<rect width="1.02891" height="1.02872" transform="matrix(1 0 0 -1 20.8157 29.5203)" fill="#FF9500"/>
<rect width="1.02891" height="1.02872" transform="matrix(1 0 0 -1 19.7869 28.4915)" fill="#FF9500"/>
<rect width="1.02891" height="1.02872" transform="matrix(1 0 0 -1 19.7869 29.5203)" fill="#FF9500"/>
<rect width="1.02891" height="1.02872" transform="matrix(1 0 0 -1 18.7579 28.4915)" fill="#FF9500"/>
<rect width="1.02891" height="1.02872" transform="matrix(1 0 0 -1 18.7579 29.5203)" fill="#FF9500"/>
<rect x="18.7579" y="27.4626" width="1.02891" height="1.02872" transform="rotate(180 18.7579 27.4626)" fill="#FF9500"/>
<rect x="17.729" y="27.4626" width="1.02891" height="1.02872" transform="rotate(180 17.729 27.4626)" fill="#FF9500"/>
<rect x="16.7001" y="27.4626" width="1.02891" height="1.02872" transform="rotate(180 16.7001 27.4626)" fill="#FF9500"/>
<rect x="15.6711" y="27.4626" width="1.02891" height="1.02872" transform="rotate(180 15.6711 27.4626)" fill="#FF9500"/>
<rect x="14.6423" y="27.4626" width="1.02891" height="1.02872" transform="rotate(180 14.6423 27.4626)" fill="#FF9500"/>
<rect x="13.6134" y="27.4626" width="1.02891" height="1.02872" transform="rotate(180 13.6134 27.4626)" fill="#FF9500"/>
<rect x="13.6134" y="26.4338" width="1.02891" height="1.02872" transform="rotate(180 13.6134 26.4338)" fill="#FF9500"/>
<rect x="12.5845" y="26.4338" width="1.02891" height="1.02872" transform="rotate(180 12.5845 26.4338)" fill="#FF9500"/>
<rect x="11.5555" y="26.4338" width="1.02891" height="1.02872" transform="rotate(180 11.5555 26.4338)" fill="#FF9500"/>
<rect x="11.5555" y="25.4053" width="1.02891" height="1.02872" transform="rotate(180 11.5555 25.4053)" fill="#FF9500"/>
<rect x="10.5266" y="25.4053" width="1.02891" height="1.02872" transform="rotate(180 10.5266 25.4053)" fill="#FF9500"/>
<rect x="10.5266" y="24.3765" width="1.02891" height="1.02872" transform="rotate(180 10.5266 24.3765)" fill="#FF9500"/>
<rect x="9.4978" y="24.3765" width="1.02891" height="1.02872" transform="rotate(180 9.4978 24.3765)" fill="#FF9500"/>
<rect x="8.46887" y="24.3765" width="1.02891" height="1.02872" transform="rotate(180 8.46887 24.3765)" fill="#FF9500"/>
<rect x="8.46887" y="23.3479" width="1.02891" height="1.02872" transform="rotate(180 8.46887 23.3479)" fill="#FF9500"/>
<rect x="7.43994" y="23.3479" width="1.02891" height="1.02872" transform="rotate(180 7.43994 23.3479)" fill="#FF9500"/>
<rect x="7.43994" y="22.3191" width="1.02891" height="1.02872" transform="rotate(180 7.43994 22.3191)" fill="#FF9500"/>
<rect x="7.43994" y="21.2903" width="1.02891" height="1.02872" transform="rotate(180 7.43994 21.2903)" fill="#FF9500"/>
<rect x="6.41101" y="21.2903" width="1.02891" height="1.02872" transform="rotate(180 6.41101 21.2903)" fill="#FF9500"/>
<rect x="5.38208" y="21.2903" width="1.02891" height="1.02872" transform="rotate(180 5.38208 21.2903)" fill="#FF9500"/>
<rect x="5.38208" y="22.3191" width="1.02891" height="1.02872" transform="rotate(180 5.38208 22.3191)" fill="#FF9500"/>
<rect x="5.38208" y="23.3479" width="1.02891" height="1.02872" transform="rotate(180 5.38208 23.3479)" fill="#FF9500"/>
<rect x="6.41101" y="22.3191" width="1.02891" height="1.02872" transform="rotate(180 6.41101 22.3191)" fill="#FF9500"/>
<rect x="6.41101" y="23.3479" width="1.02891" height="1.02872" transform="rotate(180 6.41101 23.3479)" fill="#FF9500"/>
<rect x="6.41101" y="24.3765" width="1.02891" height="1.02872" transform="rotate(180 6.41101 24.3765)" fill="#FF9500"/>
<rect x="7.43994" y="24.3765" width="1.02891" height="1.02872" transform="rotate(180 7.43994 24.3765)" fill="#FF9500"/>
<rect x="7.43994" y="25.4053" width="1.02891" height="1.02872" transform="rotate(180 7.43994 25.4053)" fill="#FF9500"/>
<rect x="8.46887" y="25.4053" width="1.02891" height="1.02872" transform="rotate(180 8.46887 25.4053)" fill="#FF9500"/>
<rect x="9.4978" y="25.4053" width="1.02891" height="1.02872" transform="rotate(180 9.4978 25.4053)" fill="#FF9500"/>
<rect x="9.4978" y="26.4338" width="1.02891" height="1.02872" transform="rotate(180 9.4978 26.4338)" fill="#FF9500"/>
<rect x="10.5266" y="26.4338" width="1.02891" height="1.02872" transform="rotate(180 10.5266 26.4338)" fill="#FF9500"/>
<rect x="11.5555" y="27.4626" width="1.02891" height="1.02872" transform="rotate(180 11.5555 27.4626)" fill="#FF9500"/>
<rect x="12.5845" y="27.4626" width="1.02891" height="1.02872" transform="rotate(180 12.5845 27.4626)" fill="#FF9500"/>
<rect x="12.5845" y="28.4915" width="1.02891" height="1.02872" transform="rotate(180 12.5845 28.4915)" fill="#FF9500"/>
<rect x="13.6134" y="28.4915" width="1.02891" height="1.02872" transform="rotate(180 13.6134 28.4915)" fill="#FF9500"/>
<rect x="14.6423" y="28.4915" width="1.02891" height="1.02872" transform="rotate(180 14.6423 28.4915)" fill="#FF9500"/>
<rect x="14.6423" y="29.5203" width="1.02891" height="1.02872" transform="rotate(180 14.6423 29.5203)" fill="#FF9500"/>
<rect x="15.6711" y="28.4915" width="1.02891" height="1.02872" transform="rotate(180 15.6711 28.4915)" fill="#FF9500"/>
<rect x="15.6711" y="29.5203" width="1.02891" height="1.02872" transform="rotate(180 15.6711 29.5203)" fill="#FF9500"/>
<rect x="16.7001" y="28.4915" width="1.02891" height="1.02872" transform="rotate(180 16.7001 28.4915)" fill="#FF9500"/>
<rect x="16.7001" y="29.5203" width="1.02891" height="1.02872" transform="rotate(180 16.7001 29.5203)" fill="#FF9500"/>
<rect x="17.729" y="28.4915" width="1.02891" height="1.02872" transform="rotate(180 17.729 28.4915)" fill="#FF9500"/>
<rect x="17.729" y="29.5203" width="1.02891" height="1.02872" transform="rotate(180 17.729 29.5203)" fill="#FF9500"/>
<rect x="18.7579" y="28.4915" width="1.02891" height="1.02872" transform="rotate(180 18.7579 28.4915)" fill="#FF9500"/>
<rect x="18.7579" y="29.5203" width="1.02891" height="1.02872" transform="rotate(180 18.7579 29.5203)" fill="#FF9500"/>
<rect x="5.14453" y="0.397461" width="1.02891" height="1.02872" fill="#FF9500"/>
<rect x="5.14453" y="1.42603" width="1.02891" height="1.02872" fill="#FF9500"/>
<rect x="5.14453" y="2.45459" width="1.02891" height="1.02872" fill="#FF9500"/>
<rect x="3.08679" y="1.42603" width="1.02891" height="1.02872" fill="#FF9500"/>
<rect x="3.08679" y="2.45459" width="1.02891" height="1.02872" fill="#FF9500"/>
<rect x="3.08679" y="3.4834" width="1.02891" height="1.02872" fill="#FF9500"/>
<rect x="3.08679" y="4.51221" width="1.02891" height="1.02872" fill="#FF9500"/>
<rect x="2.05786" y="5.54102" width="1.02891" height="1.02872" fill="#FF9500"/>
<rect x="2.05786" y="6.56982" width="1.02891" height="1.02872" fill="#FF9500"/>
<rect x="2.05786" y="1.42603" width="1.02891" height="1.02872" fill="#FF9500"/>
<rect x="2.05786" y="2.45459" width="1.02891" height="1.02872" fill="#FF9500"/>
<rect x="2.05786" y="3.4834" width="1.02891" height="1.02872" fill="#FF9500"/>
<rect x="2.05786" y="4.51221" width="1.02891" height="1.02872" fill="#FF9500"/>
<rect x="1.02893" y="5.54102" width="1.02891" height="1.02872" fill="#FF9500"/>
<rect x="1.02893" y="6.56982" width="1.02891" height="1.02872" fill="#FF9500"/>
<rect x="1.02893" y="3.4834" width="1.02891" height="1.02872" fill="#FF9500"/>
<rect x="1.02893" y="4.51221" width="1.02891" height="1.02872" fill="#FF9500"/>
<rect y="5.54102" width="1.02891" height="1.02872" fill="#FF9500"/>
<rect y="6.56982" width="1.02891" height="1.02872" fill="#FF9500"/>
<rect x="6.17346" y="0.397461" width="1.02891" height="1.02872" fill="#FF9500"/>
<rect x="6.17346" y="1.42603" width="1.02891" height="1.02872" fill="#FF9500"/>
<rect x="4.11572" y="1.42603" width="1.02891" height="1.02872" fill="#FF9500"/>
<rect x="4.11572" y="2.45459" width="1.02891" height="1.02872" fill="#FF9500"/>
<rect x="7.20239" y="0.397461" width="1.02891" height="1.02872" fill="#FF9500"/>
<rect x="7.20239" y="1.42603" width="1.02891" height="1.02872" fill="#FF9500"/>
<rect x="8.23132" y="0.397461" width="1.02891" height="1.02872" fill="#FF9500"/>
<rect x="8.23132" y="1.42603" width="1.02891" height="1.02872" fill="#FF9500"/>
<rect x="9.26025" y="0.397461" width="1.02891" height="1.02872" fill="#FF9500"/>
<rect x="9.26025" y="1.42603" width="1.02891" height="1.02872" fill="#FF9500"/>
<rect x="11.318" y="1.42603" width="1.02891" height="1.02872" fill="#FF9500"/>
<rect x="11.318" y="2.45459" width="1.02891" height="1.02872" fill="#FF9500"/>
<rect x="10.2891" y="0.397461" width="1.02891" height="1.02872" fill="#FF9500"/>
<rect x="10.2891" y="1.42603" width="1.02891" height="1.02872" fill="#FF9500"/>
<rect x="10.2891" y="2.45459" width="1.02891" height="1.02872" fill="#FF9500"/>
<rect x="12.3469" y="1.42603" width="1.02891" height="1.02872" fill="#FF9500"/>
<rect x="12.3469" y="2.45459" width="1.02891" height="1.02872" fill="#FF9500"/>
<rect x="12.3469" y="3.4834" width="1.02891" height="1.02872" fill="#FF9500"/>
<rect x="12.3469" y="4.51221" width="1.02891" height="1.02872" fill="#FF9500"/>
<rect x="13.3759" y="1.42603" width="1.02891" height="1.02872" fill="#FF9500"/>
<rect x="13.3759" y="2.45459" width="1.02891" height="1.02872" fill="#FF9500"/>
<rect x="13.3759" y="3.4834" width="1.02891" height="1.02872" fill="#FF9500"/>
<rect x="13.3759" y="4.51221" width="1.02891" height="1.02872" fill="#FF9500"/>
<rect x="13.3759" y="5.54102" width="1.02891" height="1.02872" fill="#FF9500"/>
<rect x="13.3759" y="6.56982" width="1.02891" height="1.02872" fill="#FF9500"/>
<rect x="14.4048" y="3.4834" width="1.02891" height="1.02872" fill="#FF9500"/>
<rect x="14.4048" y="4.51221" width="1.02891" height="1.02872" fill="#FF9500"/>
<rect x="14.4048" y="5.54102" width="1.02891" height="1.02872" fill="#FF9500"/>
<rect x="14.4048" y="6.56982" width="1.02891" height="1.02872" fill="#FF9500"/>
<rect x="15.4336" y="5.54102" width="1.02891" height="1.02872" fill="#FF9500"/>
<rect x="15.4336" y="6.56982" width="1.02891" height="1.02872" fill="#FF9500"/>
<rect width="1.02891" height="1.02872" transform="matrix(1 0 0 -1 5.14453 14.7996)" fill="#FF9500"/>
<rect width="1.02891" height="1.02872" transform="matrix(1 0 0 -1 5.14453 13.7708)" fill="#FF9500"/>
<rect width="1.02891" height="1.02872" transform="matrix(1 0 0 -1 5.14453 12.7422)" fill="#FF9500"/>
<rect width="1.02891" height="1.02872" transform="matrix(1 0 0 -1 3.08679 13.7708)" fill="#FF9500"/>
<rect width="1.02891" height="1.02872" transform="matrix(1 0 0 -1 3.08679 12.7422)" fill="#FF9500"/>
<rect width="1.02891" height="1.02872" transform="matrix(1 0 0 -1 3.08679 11.7131)" fill="#FF9500"/>
<rect width="1.02891" height="1.02872" transform="matrix(1 0 0 -1 3.08679 10.6846)" fill="#FF9500"/>
<rect width="1.02891" height="1.02872" transform="matrix(1 0 0 -1 2.05786 9.65576)" fill="#FF9500"/>
<rect width="1.02891" height="1.02872" transform="matrix(1 0 0 -1 2.05786 8.6272)" fill="#FF9500"/>
<rect width="1.02891" height="1.02872" transform="matrix(1 0 0 -1 2.05786 13.7708)" fill="#FF9500"/>
<rect width="1.02891" height="1.02872" transform="matrix(1 0 0 -1 2.05786 12.7422)" fill="#FF9500"/>
<rect width="1.02891" height="1.02872" transform="matrix(1 0 0 -1 2.05786 11.7131)" fill="#FF9500"/>
<rect width="1.02891" height="1.02872" transform="matrix(1 0 0 -1 2.05786 10.6846)" fill="#FF9500"/>
<rect width="1.02891" height="1.02872" transform="matrix(1 0 0 -1 1.02893 9.65576)" fill="#FF9500"/>
<rect width="1.02891" height="1.02872" transform="matrix(1 0 0 -1 1.02893 8.6272)" fill="#FF9500"/>
<rect width="1.02891" height="1.02872" transform="matrix(1 0 0 -1 1.02893 11.7131)" fill="#FF9500"/>
<rect width="1.02891" height="1.02872" transform="matrix(1 0 0 -1 1.02893 10.6846)" fill="#FF9500"/>
<rect width="1.02891" height="1.02872" transform="matrix(1 0 0 -1 0 9.65576)" fill="#FF9500"/>
<rect width="1.02891" height="1.02872" transform="matrix(1 0 0 -1 0 8.6272)" fill="#FF9500"/>
<rect width="1.02891" height="1.02872" transform="matrix(1 0 0 -1 6.17346 14.7996)" fill="#FF9500"/>
<rect width="1.02891" height="1.02872" transform="matrix(1 0 0 -1 6.17346 13.7708)" fill="#FF9500"/>
<rect width="1.02891" height="1.02872" transform="matrix(1 0 0 -1 4.11572 13.7708)" fill="#FF9500"/>
<rect width="1.02891" height="1.02872" transform="matrix(1 0 0 -1 4.11572 12.7422)" fill="#FF9500"/>
<rect width="1.02891" height="1.02872" transform="matrix(1 0 0 -1 7.20239 14.7996)" fill="#FF9500"/>
<rect width="1.02891" height="1.02872" transform="matrix(1 0 0 -1 7.20239 13.7708)" fill="#FF9500"/>
<rect width="1.02891" height="1.02872" transform="matrix(1 0 0 -1 8.23132 14.7996)" fill="#FF9500"/>
<rect width="1.02891" height="1.02872" transform="matrix(1 0 0 -1 8.23132 13.7708)" fill="#FF9500"/>
<rect width="1.02891" height="1.02872" transform="matrix(1 0 0 -1 9.26025 14.7996)" fill="#FF9500"/>
<rect width="1.02891" height="1.02872" transform="matrix(1 0 0 -1 9.26025 13.7708)" fill="#FF9500"/>
<rect width="1.02891" height="1.02872" transform="matrix(1 0 0 -1 11.318 13.7708)" fill="#FF9500"/>
<rect width="1.02891" height="1.02872" transform="matrix(1 0 0 -1 11.318 12.7422)" fill="#FF9500"/>
<rect width="1.02891" height="1.02872" transform="matrix(1 0 0 -1 10.2891 14.7996)" fill="#FF9500"/>
<rect width="1.02891" height="1.02872" transform="matrix(1 0 0 -1 10.2891 13.7708)" fill="#FF9500"/>
<rect width="1.02891" height="1.02872" transform="matrix(1 0 0 -1 10.2891 12.7422)" fill="#FF9500"/>
<rect width="1.02891" height="1.02872" transform="matrix(1 0 0 -1 12.3469 13.7708)" fill="#FF9500"/>
<rect width="1.02891" height="1.02872" transform="matrix(1 0 0 -1 12.3469 12.7422)" fill="#FF9500"/>
<rect width="1.02891" height="1.02872" transform="matrix(1 0 0 -1 12.3469 11.7131)" fill="#FF9500"/>
<rect width="1.02891" height="1.02872" transform="matrix(1 0 0 -1 12.3469 10.6846)" fill="#FF9500"/>
<rect width="1.02891" height="1.02872" transform="matrix(1 0 0 -1 13.3759 13.7708)" fill="#FF9500"/>
<rect width="1.02891" height="1.02872" transform="matrix(1 0 0 -1 13.3759 12.7422)" fill="#FF9500"/>
<rect width="1.02891" height="1.02872" transform="matrix(1 0 0 -1 13.3759 11.7131)" fill="#FF9500"/>
<rect width="1.02891" height="1.02872" transform="matrix(1 0 0 -1 13.3759 10.6846)" fill="#FF9500"/>
<rect width="1.02891" height="1.02872" transform="matrix(1 0 0 -1 13.3759 9.65576)" fill="#FF9500"/>
<rect width="1.02891" height="1.02872" transform="matrix(1 0 0 -1 13.3759 8.6272)" fill="#FF9500"/>
<rect width="1.02891" height="1.02872" transform="matrix(1 0 0 -1 14.4048 11.7131)" fill="#FF9500"/>
<rect width="1.02891" height="1.02872" transform="matrix(1 0 0 -1 14.4048 10.6846)" fill="#FF9500"/>
<rect width="1.02891" height="1.02872" transform="matrix(1 0 0 -1 14.4048 9.65576)" fill="#FF9500"/>
<rect width="1.02891" height="1.02872" transform="matrix(1 0 0 -1 14.4048 8.6272)" fill="#FF9500"/>
<rect width="1.02891" height="1.02872" transform="matrix(1 0 0 -1 15.4336 9.65576)" fill="#FF9500"/>
<rect width="1.02891" height="1.02872" transform="matrix(1 0 0 -1 15.4336 8.6272)" fill="#FF9500"/>
<rect x="24.4149" y="8.6272" width="1.02891" height="1.02872" fill="#FF9500"/>
<rect x="24.4149" y="9.65576" width="1.02891" height="1.02872" fill="#FF9500"/>
<rect x="25.4438" y="8.6272" width="1.02891" height="1.02872" fill="#FF9500"/>
<rect x="25.4438" y="9.65576" width="1.02891" height="1.02872" fill="#FF9500"/>
<rect x="26.4728" y="8.6272" width="1.02891" height="1.02872" fill="#FF9500"/>
<rect x="26.4728" y="9.65576" width="1.02891" height="1.02872" fill="#FF9500"/>
<rect x="26.4728" y="10.6846" width="1.02891" height="1.02872" fill="#FF9500"/>
<rect x="27.5016" y="8.6272" width="1.02891" height="1.02872" fill="#FF9500"/>
<rect x="27.5016" y="9.65576" width="1.02891" height="1.02872" fill="#FF9500"/>
<rect x="27.5016" y="10.6846" width="1.02891" height="1.02872" fill="#FF9500"/>
<rect x="28.5305" y="9.65576" width="1.02891" height="1.02872" fill="#FF9500"/>
<rect x="28.5305" y="10.6846" width="1.02891" height="1.02872" fill="#FF9500"/>
<rect x="28.5305" y="11.7134" width="1.02891" height="1.02872" fill="#FF9500"/>
<rect x="30.5884" y="10.6846" width="1.02891" height="1.02872" fill="#FF9500"/>
<rect x="30.5884" y="11.7134" width="1.02891" height="1.02872" fill="#FF9500"/>
<rect x="30.5884" y="12.7419" width="1.02891" height="1.02872" fill="#FF9500"/>
<rect x="32.6461" y="11.7134" width="1.02891" height="1.02872" fill="#FF9500"/>
<rect x="32.6461" y="12.7419" width="1.02891" height="1.02872" fill="#FF9500"/>
<rect x="32.6461" y="13.7708" width="1.02891" height="1.02872" fill="#FF9500"/>
<rect x="29.5594" y="9.65576" width="1.02891" height="1.02872" fill="#FF9500"/>
<rect x="29.5594" y="10.6846" width="1.02891" height="1.02872" fill="#FF9500"/>
<rect x="29.5594" y="11.7134" width="1.02891" height="1.02872" fill="#FF9500"/>
<rect x="31.6173" y="10.6846" width="1.02891" height="1.02872" fill="#FF9500"/>
<rect x="31.6173" y="11.7134" width="1.02891" height="1.02872" fill="#FF9500"/>
<rect x="31.6173" y="12.7419" width="1.02891" height="1.02872" fill="#FF9500"/>
<rect x="33.675" y="12.7419" width="1.02891" height="1.02872" fill="#FF9500"/>
<rect x="33.675" y="11.7134" width="1.02891" height="1.02872" fill="#FF9500"/>
<rect x="33.675" y="13.7708" width="1.02891" height="1.02872" fill="#FF9500"/>
<rect x="34.704" y="12.7419" width="1.02891" height="1.02872" fill="#FF9500"/>
<rect x="23.386" y="7.59839" width="1.02891" height="1.02872" fill="#FF9500"/>
<rect x="23.386" y="8.6272" width="1.02891" height="1.02872" fill="#FF9500"/>
<rect x="24.4149" y="7.59839" width="1.02891" height="1.02872" fill="#FF9500"/>
<rect x="25.4438" y="7.59839" width="1.02891" height="1.02872" fill="#FF9500"/>
<rect width="1.02891" height="1.02872" transform="matrix(1 0 0 -1 24.4149 6.56958)" fill="#FF9500"/>
<rect width="1.02891" height="1.02872" transform="matrix(1 0 0 -1 24.4149 5.54102)" fill="#FF9500"/>
<rect width="1.02891" height="1.02872" transform="matrix(1 0 0 -1 25.4438 6.56958)" fill="#FF9500"/>
<rect width="1.02891" height="1.02872" transform="matrix(1 0 0 -1 25.4438 5.54102)" fill="#FF9500"/>
<rect width="1.02891" height="1.02872" transform="matrix(1 0 0 -1 26.4728 6.56958)" fill="#FF9500"/>
<rect width="1.02891" height="1.02872" transform="matrix(1 0 0 -1 26.4728 5.54102)" fill="#FF9500"/>
<rect width="1.02891" height="1.02872" transform="matrix(1 0 0 -1 26.4728 4.51221)" fill="#FF9500"/>
<rect width="1.02891" height="1.02872" transform="matrix(1 0 0 -1 27.5016 6.56958)" fill="#FF9500"/>
<rect width="1.02891" height="1.02872" transform="matrix(1 0 0 -1 27.5016 5.54102)" fill="#FF9500"/>
<rect width="1.02891" height="1.02872" transform="matrix(1 0 0 -1 27.5016 4.51221)" fill="#FF9500"/>
<rect width="1.02891" height="1.02872" transform="matrix(1 0 0 -1 28.5305 5.54102)" fill="#FF9500"/>
<rect width="1.02891" height="1.02872" transform="matrix(1 0 0 -1 28.5305 4.51221)" fill="#FF9500"/>
<rect width="1.02891" height="1.02872" transform="matrix(1 0 0 -1 28.5305 3.48364)" fill="#FF9500"/>
<rect width="1.02891" height="1.02872" transform="matrix(1 0 0 -1 30.5884 4.51221)" fill="#FF9500"/>
<rect width="1.02891" height="1.02872" transform="matrix(1 0 0 -1 30.5884 3.48364)" fill="#FF9500"/>
<rect width="1.02891" height="1.02872" transform="matrix(1 0 0 -1 30.5884 2.45483)" fill="#FF9500"/>
<rect width="1.02891" height="1.02872" transform="matrix(1 0 0 -1 32.6461 3.48364)" fill="#FF9500"/>
<rect width="1.02891" height="1.02872" transform="matrix(1 0 0 -1 32.6461 2.45483)" fill="#FF9500"/>
<rect width="1.02891" height="1.02872" transform="matrix(1 0 0 -1 32.6461 1.42603)" fill="#FF9500"/>
<rect width="1.02891" height="1.02872" transform="matrix(1 0 0 -1 29.5594 5.54102)" fill="#FF9500"/>
<rect width="1.02891" height="1.02872" transform="matrix(1 0 0 -1 29.5594 4.51221)" fill="#FF9500"/>
<rect width="1.02891" height="1.02872" transform="matrix(1 0 0 -1 29.5594 3.48364)" fill="#FF9500"/>
<rect width="1.02891" height="1.02872" transform="matrix(1 0 0 -1 31.6173 4.51221)" fill="#FF9500"/>
<rect width="1.02891" height="1.02872" transform="matrix(1 0 0 -1 31.6173 3.48364)" fill="#FF9500"/>
<rect width="1.02891" height="1.02872" transform="matrix(1 0 0 -1 31.6173 2.45483)" fill="#FF9500"/>
<rect width="1.02891" height="1.02872" transform="matrix(1 0 0 -1 33.675 2.45483)" fill="#FF9500"/>
<rect width="1.02891" height="1.02872" transform="matrix(1 0 0 -1 33.675 3.48364)" fill="#FF9500"/>
<rect width="1.02891" height="1.02872" transform="matrix(1 0 0 -1 33.675 1.42603)" fill="#FF9500"/>
<rect width="1.02891" height="1.02872" transform="matrix(1 0 0 -1 34.704 2.45483)" fill="#FF9500"/>
<rect width="1.02891" height="1.02872" transform="matrix(1 0 0 -1 23.386 7.59839)" fill="#FF9500"/>
<rect width="1.02891" height="1.02872" transform="matrix(1 0 0 -1 23.386 6.56958)" fill="#FF9500"/>
<rect width="1.02891" height="1.02872" transform="matrix(1 0 0 -1 24.4149 7.59839)" fill="#FF9500"/>
<rect width="1.02891" height="1.02872" transform="matrix(1 0 0 -1 25.4438 7.59839)" fill="#FF9500"/>
<path d="M299.87 7.01611L304.702 20.7833L309.666 7.01611H312.347L305.595 24.7878C304.239 28.3619 303.312 29.5202 300.433 29.5202H298.546V27.3691H299.87C301.723 27.3691 302.319 27.0051 303.444 23.8942L297.057 7.01611H299.87Z" fill="#FFFFFF"/>
<path d="M296.244 18.3673C295.384 22.107 292.77 24.2912 288.898 24.2912C284 24.2912 280.756 20.5516 280.756 15.455C280.756 10.4247 283.966 6.68506 288.864 6.68506C292.77 6.68506 295.384 8.90238 296.244 12.6089H293.498C292.902 10.16 291.347 8.83619 288.864 8.83619C285.489 8.83619 283.536 11.6161 283.536 15.455C283.536 19.3271 285.522 22.1401 288.898 22.1401C291.512 22.1401 292.902 20.6509 293.498 18.3673H296.244Z" fill="#FFFFFF"/>
<path d="M264.038 7.016H266.62V9.86211C267.447 8.24049 269.102 6.68506 272.18 6.68506C275.82 6.68506 277.74 8.77 277.74 12.0794V23.8941H275.158V12.5097C275.158 10.1931 274.066 8.83619 271.286 8.83619C268.705 8.83619 266.62 10.8218 266.62 14.0651V23.8941H264.038V7.016Z" fill="#FFFFFF"/>
<path d="M244.85 15.455C244.85 10.4247 247.994 6.68506 252.958 6.68506C258.088 6.68506 261.166 10.888 260.934 15.9846H247.63C247.762 19.658 249.682 22.1401 253.091 22.1401C255.771 22.1401 257.194 20.5185 257.856 18.5328H260.603C259.643 21.9084 256.996 24.2912 253.091 24.2912C248.093 24.2912 244.85 20.5516 244.85 15.455ZM258.154 13.9327C257.658 10.888 255.87 8.83619 252.958 8.83619C250.013 8.83619 248.193 10.8549 247.729 13.9327H258.154Z" fill="#FFFFFF"/>
<path d="M234.47 29.9173C230.2 29.9173 227.652 27.733 227.156 24.8869H229.87C230.3 26.6078 231.723 27.8323 234.47 27.8323C237.58 27.8323 239.136 26.2769 239.136 23.0006V20.7501C238.044 22.7027 236.191 23.6955 233.708 23.6955C229.34 23.6955 226.494 20.1213 226.494 15.1572C226.494 10.2592 229.34 6.68506 233.708 6.68506C236.191 6.68506 238.044 7.81027 239.136 9.76283V7.016H241.717V22.471C241.717 27.1704 239.533 29.9173 234.47 29.9173ZM234.238 21.5444C237.415 21.5444 239.202 18.8638 239.202 15.1572C239.202 11.5168 237.415 8.83619 234.238 8.83619C231.061 8.83619 229.274 11.5168 229.274 15.1572C229.274 18.8638 231.061 21.5444 234.238 21.5444Z" fill="#FFFFFF"/>
<path d="M222.626 23.8942L220.343 17.3746H210.05L207.734 23.8942H204.821L213.426 0.397217H217.066L225.671 23.8942H222.626ZM210.878 14.9587H219.482L215.18 2.78001L210.878 14.9587Z" fill="#FFFFFF"/>
<path d="M199.636 19.9951V23.8942H195.709V19.9951H199.636Z" fill="#FFFFFF"/>
<path d="M192.431 7.01611H193.589V10.7889H191.967C189.154 10.7889 187.632 11.881 187.599 15.3228V23.8942H183.429V7.01611H187.5V10.1601C188.128 8.47226 189.717 7.01611 192.431 7.01611Z" fill="#FFFFFF"/>
<path d="M164.018 15.4548C164.018 10.4245 167.427 6.68481 172.589 6.68481C177.885 6.68481 181.161 10.8216 180.962 16.3814H168.32C168.486 19.4592 170.074 21.3125 172.689 21.3125C174.774 21.3125 175.932 20.088 176.462 18.5326H180.631C179.705 21.8089 176.958 24.291 172.656 24.291C167.493 24.291 164.018 20.5513 164.018 15.4548ZM176.726 13.767C176.329 11.2849 174.906 9.63021 172.589 9.63021C170.273 9.63021 168.817 11.2518 168.453 13.767H176.726Z" fill="#FFFFFF"/>
<path d="M152.046 24.2913C148.538 24.2913 146.552 22.0409 146.552 18.566V7.01611H150.722V17.6725C150.722 19.7243 151.583 20.9819 153.734 20.9819C155.819 20.9819 157.341 19.2941 157.341 16.6466V7.01611H161.511V23.8942H157.407V21.1805C156.481 22.8352 154.892 24.2913 152.046 24.2913Z" fill="#FFFFFF"/>
<path d="M139.131 21.2794C138.139 23.1327 136.351 24.291 133.936 24.291C129.633 24.291 126.82 20.5844 126.82 15.4879C126.82 10.3583 129.633 6.68481 133.936 6.68481C136.351 6.68481 138.139 7.87621 139.131 9.6964V7.01576H143.301V29.5199H139.131V21.2794ZM135.259 21.1801C137.808 21.1801 139.231 18.8635 139.231 15.4879C139.231 12.1454 137.808 9.79568 135.259 9.79568C132.711 9.79568 131.288 12.1454 131.288 15.4879C131.288 18.8635 132.711 21.1801 135.259 21.1801Z" fill="#FFFFFF"/>
<path d="M116.55 24.291C111.388 24.291 107.979 20.5513 107.979 15.4548C107.979 10.4245 111.388 6.68481 116.55 6.68481C121.713 6.68481 125.122 10.4245 125.122 15.4548C125.122 20.5513 121.713 24.291 116.55 24.291ZM116.55 21.2463C119.198 21.2463 120.687 18.8635 120.687 15.4548C120.687 12.0792 119.198 9.72949 116.55 9.72949C113.903 9.72949 112.414 12.0792 112.414 15.4548C112.414 18.8635 113.903 21.2463 116.55 21.2463Z" fill="#FFFFFF"/>
<path d="M90.4501 0.397217H94.62V9.76291C95.5135 8.14129 97.1682 6.68513 100.047 6.68513C103.688 6.68513 105.607 8.90246 105.607 12.3443V23.8942H101.404V13.2709C101.404 11.2191 100.577 9.96147 98.3265 9.96147C96.1754 9.96147 94.62 11.6493 94.62 14.2968V23.8942H90.4501V0.397217Z" fill="#FFFFFF"/>
<path d="M77.7767 24.2912C70.8269 24.2912 66.293 19.294 66.293 12.1456C66.293 4.99724 70.8269 0 77.7767 0C83.4358 0 87.0762 3.57419 88.0359 8.1743H83.3696C82.7739 5.65913 80.8214 3.87204 77.7767 3.87204C73.4744 3.87204 70.9593 7.31384 70.9593 12.1456C70.9593 16.9774 73.4744 20.4192 77.7767 20.4192C81.0199 20.4192 82.7739 18.6321 83.3696 16.1169H88.0359C87.1093 20.717 83.6013 24.2912 77.7767 24.2912Z" fill="#FFFFFF"/>
</svg>
